<svg width="38" height="40" viewBox="0 0 38 40" fill="none" xmlns="http://www.w3.org/2000/svg">
<path d="M37.2027 21.7656L23.6313 34.2656C23.1054 34.7578 22.4099 35 21.7143 35C21.0188 35 20.325 34.7559 19.7957 34.2676C18.7354 33.291 18.7354 31.709 19.7957 30.7324L28.7375 22.5H2.71433C1.21554 22.5 0.000183105 21.3828 0.000183105 20C0.000183105 18.6172 1.21554 17.5 2.71433 17.5H28.7375L19.7974 9.26562C18.7371 8.28906 18.7371 6.70703 19.7974 5.73047C20.8576 4.75391 22.5753 4.75391 23.6355 5.73047L37.207 18.2305C38.263 19.2109 38.263 20.7891 37.2027 21.7656Z" fill="black"/>
</svg>
